<svg xmlns="http://www.w3.org/2000/svg" width="152" height="152" viewBox="0 0 152 152">
  <defs>
    <style>
      .cls-1 {
        fill: #fff;
      }

      .cls-1, .cls-2 {
        fill-rule: evenodd;
      }

      .cls-2 {
        fill: #bf9f3a;
      }
    </style>
  </defs>
  <g id="Mesa_de_trabajo_1" data-name="Mesa de trabajo 1">
    <path id="Relleno_de_color_2" data-name="Relleno de color 2" class="cls-1" d="M76.009,50a3.678,3.678,0,0,1,.573.775c0.474,0.657.992,1.29,1.474,1.957,1.469,2.035,3.066,3.987,4.543,6.034,0.633,0.877,1.324,1.721,1.965,2.609a5.289,5.289,0,0,1,.859,1.142l-6.958,6.89-1.719,1.712a2.687,2.687,0,0,1-.778.734L69.01,64.88l-1.76-1.753a1.505,1.505,0,0,1-.614-0.734,5.7,5.7,0,0,0,.982-1.3c0.633-.877,1.324-1.721,1.965-2.609,1.509-2.091,3.149-4.1,4.666-6.2C74.805,51.512,75.491,50.8,76.009,50ZM50.018,83.307V51.264H50.1a10.653,10.653,0,0,0,1.432,1.468l2.783,2.854,1.514,1.468a16.929,16.929,0,0,0,1.637,1.671c0.907,0.9,1.794,1.828,2.7,2.731,2.319,2.31,4.557,4.7,6.876,7.012,1.471,1.465,3,2.895,4.38,4.444l1.351,1.345a1.648,1.648,0,0,1,.491.53l-8.554,8.52H50.018Zm51.982,0H87.306l-6.344-6.36-1.6-1.59a1.371,1.371,0,0,1-.573-0.693l0.778-.775c0.675-.673,1.331-1.365,2.006-2.038,1.03-1.026,2.04-2.072,3.07-3.1a19.067,19.067,0,0,0,1.842-1.875l2.333-2.283c1.084-1.081,2.108-2.222,3.193-3.3a23.882,23.882,0,0,0,2.292-2.324l2.579-2.528a21.23,21.23,0,0,1,2.006-2.079l0.614-.571a16.063,16.063,0,0,1,1.556-1.59L102,51.264V83.307ZM75.968,77.355a1.382,1.382,0,0,1,.491.489,16.419,16.419,0,0,1,1.269,1.386l0.45,0.408c0.673,0.888,1.537,1.6,2.21,2.487,0.321,0.423.806,0.731,1.105,1.182H70.524V83.266h0.041c0.317-.481.844-0.812,1.187-1.264,0.94-1.238,2.171-2.226,3.111-3.465C75.184,78.115,75.668,77.806,75.968,77.355ZM102,88.484V101H50.059a4.806,4.806,0,0,1-.041-1.223V88.566a0.147,0.147,0,0,0,.041-0.082H102Zm-30.78,1.06c-0.219.127-1.2,0.114-1.514,0.2a10.8,10.8,0,0,0-2.579,1.019c-1.033.625-2.052,1.235-3.07,1.875a24.161,24.161,0,0,1-5.567,3.017c-1.678.54-3.919,0.317-4.584-.938a1.791,1.791,0,0,1-.2-1.3,3.973,3.973,0,0,1,.491-0.938H53.906a3.183,3.183,0,0,0-1.105.693,3.845,3.845,0,0,0,.2,3.832c0.826,1.235,2.443,1.786,4.052,2.242,0.411,0.116.789,0.063,1.228,0.163a8.668,8.668,0,0,0,2.374.122c0.956-.218,1.959-0.09,2.865-0.326a38.219,38.219,0,0,0,5.607-1.753c1.5-.647,2.987-1.338,4.421-2.079a10.887,10.887,0,0,1,2.415-1.1,4.068,4.068,0,0,1,1.351.53c0.593,0.305,1.175.513,1.76,0.815,0.5,0.261,1.037.587,1.555,0.815A52.209,52.209,0,0,0,87.551,99c0.863,0.246,1.8.24,2.7,0.448,0.374,0.087.8,0,1.146,0.082a8.427,8.427,0,0,0,2.333-.122c0.519-.122.954-0.068,1.433-0.2,1.758-.5,3.259-1.148,4.093-2.568s0.523-4.156-1.392-4.158V92.52a2.037,2.037,0,0,1-.082,2.731,5.442,5.442,0,0,1-4.5.326c-3.955-1.321-6.4-4.357-10.355-5.667-2.783-.923-5.882.076-6.876,2.038l-0.041-.041c-0.383-.291-0.594-0.809-0.982-1.1A5.862,5.862,0,0,0,71.22,89.544Zm-15.147,14.5c1.817,0.009,2.2,1.225,2.9,2.439,0.876,1.525,1.736,3.075,2.622,4.617a26.352,26.352,0,0,1,1.351,2.352A3.63,3.63,0,0,0,63.3,112.8c0.3-.529.6-1.068,0.914-1.612,0.714-1.242,1.472-2.5,2.185-3.746,0.464-.806.84-1.644,1.351-2.395a2.273,2.273,0,0,1,3.3-.479c0.979,0.8.834,2.607,0.834,4.486v10.062c0,1.983.162,3.563-.914,4.4a2.573,2.573,0,0,1-.993.392,2.064,2.064,0,0,1-1.947-.609c-0.772-.651-0.755-1.791-0.755-3.311v-5.14h-0.04v0.044a5.641,5.641,0,0,0-.477.871c-0.482.837-1.028,1.69-1.51,2.526a4.923,4.923,0,0,1-1.192,1.656,2.2,2.2,0,0,1-2.185,0c-0.9-.613-1.709-2.535-2.3-3.572a6.84,6.84,0,0,1-.874-1.525h-0.04v6.621a3.968,3.968,0,0,0-.079.653,3.384,3.384,0,0,1-.4.915,2.314,2.314,0,0,1-3.814-.218c-0.52-.919-0.318-2.914-0.318-4.355v-8.843a15.64,15.64,0,0,1,.159-4.051,2.515,2.515,0,0,1,1.113-1.306A5.362,5.362,0,0,0,56.074,104.041Zm23.8,15.027h4.053a7.262,7.262,0,0,1,1.947.044,2.023,2.023,0,0,1,1.152.958,2.7,2.7,0,0,1,.278,2,2.233,2.233,0,0,1-1.073,1.35A6.118,6.118,0,0,1,84,123.6h-4.45c-1.2,0-2.578.134-3.3-.392-1.245-.907-0.993-2.958-0.993-5.183v-8.668c0-2.726-.2-4.666,1.788-5.271a2.256,2.256,0,0,1,2.5,1.089c0.5,0.89.318,2.78,0.318,4.182v9.713Zm14.621-10.149V118.5c0,2.9.317,4.88-1.907,5.445a2.327,2.327,0,0,1-2.384-1.176c-0.5-.9-0.318-2.785-0.318-4.182v-9.67H87.223a5.006,5.006,0,0,1-1.351-.043,2.088,2.088,0,0,1-1.311-1.351,2.752,2.752,0,0,1-.119-1.48,3.259,3.259,0,0,1,.4-0.872c0.593-.875,1.893-0.784,3.3-0.784H95.8c1.209,0,2.652-.147,3.377.392a2.523,2.523,0,0,1-.318,3.964C98.1,109.125,95.619,108.93,94.494,108.919Z"/>
    <path id="Relleno_de_color_1" data-name="Relleno de color 1" class="cls-2" d="M75.009,50a3.678,3.678,0,0,1,.573.775c0.474,0.657.992,1.29,1.474,1.957,1.469,2.035,3.066,3.987,4.543,6.034,0.633,0.877,1.324,1.721,1.965,2.609a5.289,5.289,0,0,1,.859,1.142l-6.958,6.89-1.719,1.712a2.687,2.687,0,0,1-.778.734L68.01,64.88l-1.76-1.753a1.505,1.505,0,0,1-.614-0.734,5.7,5.7,0,0,0,.982-1.3c0.633-.877,1.324-1.721,1.965-2.609,1.509-2.091,3.149-4.1,4.666-6.2C73.805,51.512,74.491,50.8,75.009,50ZM49.018,83.307V51.264H49.1a10.653,10.653,0,0,0,1.432,1.468l2.783,2.854,1.514,1.468a16.929,16.929,0,0,0,1.637,1.671c0.907,0.9,1.794,1.828,2.7,2.731,2.319,2.31,4.557,4.7,6.876,7.012,1.471,1.465,3,2.895,4.38,4.444l1.351,1.345a1.648,1.648,0,0,1,.491.53l-8.554,8.52H49.018Zm51.982,0H86.306l-6.344-6.36-1.6-1.59a1.371,1.371,0,0,1-.573-0.693l0.778-.775c0.675-.673,1.331-1.365,2.006-2.038,1.03-1.026,2.04-2.072,3.07-3.1a19.067,19.067,0,0,0,1.842-1.875l2.333-2.283c1.084-1.081,2.108-2.222,3.193-3.3a23.882,23.882,0,0,0,2.292-2.324l2.579-2.528a21.23,21.23,0,0,1,2.006-2.079l0.614-.571a16.018,16.018,0,0,1,1.556-1.59L101,51.264V83.307ZM74.968,77.355a1.382,1.382,0,0,1,.491.489,16.419,16.419,0,0,1,1.269,1.386l0.45,0.408c0.673,0.888,1.537,1.6,2.21,2.487,0.321,0.423.806,0.731,1.105,1.182H69.524V83.266h0.041c0.317-.481.844-0.812,1.187-1.264,0.94-1.238,2.171-2.226,3.111-3.465C74.184,78.115,74.668,77.806,74.968,77.355ZM101,88.484V101H49.059a4.806,4.806,0,0,1-.041-1.223V88.566a0.147,0.147,0,0,0,.041-0.082H101Zm-30.78,1.06c-0.219.127-1.2,0.114-1.514,0.2a10.8,10.8,0,0,0-2.579,1.019c-1.033.625-2.052,1.235-3.07,1.875a24.161,24.161,0,0,1-5.567,3.017c-1.678.54-3.919,0.317-4.584-.938a1.791,1.791,0,0,1-.2-1.3,3.973,3.973,0,0,1,.491-0.938H52.906a3.183,3.183,0,0,0-1.105.693,3.845,3.845,0,0,0,.2,3.832c0.826,1.235,2.443,1.786,4.052,2.242,0.411,0.116.789,0.063,1.228,0.163a8.668,8.668,0,0,0,2.374.122c0.956-.218,1.959-0.09,2.865-0.326a38.219,38.219,0,0,0,5.607-1.753c1.5-.647,2.987-1.338,4.421-2.079a10.887,10.887,0,0,1,2.415-1.1,4.068,4.068,0,0,1,1.351.53c0.593,0.305,1.175.513,1.76,0.815,0.5,0.261,1.037.587,1.555,0.815A52.209,52.209,0,0,0,86.551,99c0.863,0.246,1.8.24,2.7,0.448,0.374,0.087.8,0,1.146,0.082a8.427,8.427,0,0,0,2.333-.122c0.519-.122.954-0.068,1.433-0.2,1.758-.5,3.259-1.148,4.093-2.568s0.523-4.156-1.392-4.158V92.52a2.037,2.037,0,0,1-.082,2.731,5.442,5.442,0,0,1-4.5.326c-3.955-1.321-6.4-4.357-10.355-5.667-2.783-.923-5.882.076-6.876,2.038l-0.041-.041c-0.383-.291-0.594-0.809-0.982-1.1A5.862,5.862,0,0,0,70.22,89.544Z"/>
  </g>
</svg>
